<svg xmlns="http://www.w3.org/2000/svg"  fill="none">
 <symbol id="floppy"> 
    <path fill="currentColor" d="M0 0h1.615v1.615H0zm0 1.615h1.615V3.23H0zm0 1.616h1.615v1.615H0zm0 1.615h1.615v1.615H0zm0 1.615h1.615v1.615H0zm0 1.616h1.615v1.615H0zm0 1.615h1.615v1.615H0zm0 1.616h1.615v1.615H0zm0 1.615h1.615v1.615H0zm0 1.616h1.615v1.615H0zm0 1.615h1.615v1.615H0zm0 1.615h1.615v1.615H0zm0 1.616h1.615V21H0zM17.77-.001v1.615h-1.615V-.001zM16.154 0v1.615h-1.615V0zm-1.615 0v1.615h-1.615V0zm-1.616 0v1.615h-1.615V0zm-1.615 0v1.615H9.693V0zM9.692 0v1.615H8.077V0zM8.077 0v1.615H6.462V0zM6.462 0v1.615H4.847V0zM4.846 0v1.615H3.231V0zM3.23.001v1.615H1.615V.001zm16.155 1.614V3.23H17.77V1.615zM4.846 3.231v1.615H3.231V3.231zm0-1.616V3.23H3.231V1.615zm0 3.231v1.615H3.231V4.846zm11.308-1.615v1.615h-1.615V3.231zm0-1.616V3.23h-1.615V1.615zm0 3.231v1.615h-1.615V4.846zm-3.231-1.615v1.615h-1.615V3.231zm0-1.616V3.23h-1.615V1.615zm0 3.231v1.615h-1.615V4.846zm3.231 1.615v1.615h-1.615V6.461zm-1.615 0v1.615h-1.615V6.461zm-1.616 0v1.615h-1.615V6.461zm-1.615 0v1.615H9.693V6.461zm-1.616 0v1.615H8.077V6.461zm-1.615 0v1.615H6.462V6.461zm-1.615 0v1.615H4.847V6.461zm-1.616 0v1.615H3.231V6.461zm12.924 4.846v1.615h-1.615v-1.615zm-1.616.001v1.615h-1.615v-1.615zm-1.615 0v1.615h-1.615v-1.615zm-1.616 0v1.615h-1.615v-1.615zm-1.615 0v1.615H9.693v-1.615zm-1.616 0v1.615H8.077v-1.615zm-1.615 0v1.615H6.462v-1.615zm-1.615 0v1.615H4.847v-1.615zm-1.616 0v1.615H3.231v-1.615zm12.924 1.614v1.615h-1.615v-1.615zm-12.924.001v1.615H3.231v-1.615zm12.924 1.615v1.615h-1.615v-1.615zm-12.924.001v1.615H3.231v-1.615zm12.924 1.614v1.615h-1.615v-1.615zm-12.924.001v1.615H3.231v-1.615zm0 1.615v1.615H3.231v-1.615zm12.924-.001v1.615h-1.615v-1.615zm1.615 1.617V21H17.77v-1.615zm-1.615-.001v1.615h-1.615v-1.615zm-1.616.001V21h-1.615v-1.615zm-1.615 0V21h-1.615v-1.615zm-1.616 0V21h-1.615v-1.615zm-1.615 0V21H9.693v-1.615zm-1.616 0V21H8.077v-1.615zm-1.615 0V21H6.462v-1.615zm-1.615 0V21H4.847v-1.615zm-1.616 0V21H3.231v-1.615zm-1.616.001v1.615H1.615v-1.615zM21 21h-1.615v-1.615H21zm0-1.615h-1.615V17.77H21zm0-1.616h-1.615v-1.615H21zm0-1.615h-1.615v-1.615H21zm0-1.615h-1.615v-1.615H21zm0-1.616h-1.615v-1.615H21zm0-1.615h-1.615V9.693H21zm0-1.616h-1.615V8.077H21zm0-1.615h-1.615V6.462H21zm0-1.616h-1.615V4.846H21zm0-1.615h-1.615V3.231H21z"/>
 </symbol>

 <symbol id="save-icon">
    <path fill="currentColor" d="M0 0h3v3H0zM0 3h3v3H0zM0 6h3v3H0zM0 9h3v3H0zM0 12h3v3H0zM0 15h3v3H0zM0 18h3v3H0zM0 21h3v3H0zM0 24h3v3H0zM0 27h3v3H0zM0 30h3v3H0zM0 33h3v3H0zM0 36h3v3H0zM33 0v3h-3V0zM30 0v3h-3V0zM27 0v3h-3V0zM24 0v3h-3V0zM21 0v3h-3V0zM18 0v3h-3V0zM15 0v3h-3V0zM12 0v3H9V0zM9 0v3H6V0zM6 0v3H3V0zM36 3v3h-3V3zM9 6v3H6V6zM9 3v3H6V3zM9 9v3H6V9zM30 6v3h-3V6zM30 3v3h-3V3zM30 9v3h-3V9zM24 6v3h-3V6zM24 3v3h-3V3zM24 9v3h-3V9zM30 12v3h-3v-3zM27 12v3h-3v-3zM24 12v3h-3v-3zM21 12v3h-3v-3zM18 12v3h-3v-3zM15 12v3h-3v-3zM12 12v3H9v-3zM9 12v3H6v-3zM33 21v3h-3v-3zM30 21v3h-3v-3zM27 21v3h-3v-3zM24 21v3h-3v-3zM21 21v3h-3v-3zM18 21v3h-3v-3zM15 21v3h-3v-3zM12 21v3H9v-3zM9 21v3H6v-3zM33 24v3h-3v-3zM9 24v3H6v-3zM33 27v3h-3v-3zM9 27v3H6v-3zM33 30v3h-3v-3zM9 30v3H6v-3zM9 33v3H6v-3zM33 33v3h-3v-3zM36 36v3h-3v-3zM33 36v3h-3v-3zM30 36v3h-3v-3zM27 36v3h-3v-3zM24 36v3h-3v-3zM21 36v3h-3v-3zM18 36v3h-3v-3zM15 36v3h-3v-3zM12 36v3H9v-3zM9 36v3H6v-3zM6 36v3H3v-3zM39 39h-3v-3h3zM39 36h-3v-3h3zM39 33h-3v-3h3zM39 30h-3v-3h3zM39 27h-3v-3h3zM39 24h-3v-3h3zM39 21h-3v-3h3zM39 18h-3v-3h3zM39 15h-3v-3h3zM39 12h-3V9h3zM39 9h-3V6h3z"/>
  </symbol>
</svg>

